HIERARCHY
ROOT joint_0
{
	OFFSET 0.000000 0.000000 0.000000
	CHANNELS 6 Xposition Yposition Zposition Zrotation Yrotation Xrotation 
	JOINT joint_1
	{
		OFFSET 8.185791 -2.713684 100.414917
		CHANNELS 3 Zrotation Yrotation Xrotation
		JOINT joint_2
		{
			OFFSET -4.376465 -1.111145 91.934082
			CHANNELS 3 Zrotation Yrotation Xrotation
			JOINT joint_3
			{
				OFFSET -6.985840 -1.054016 91.669922
				CHANNELS 3 Zrotation Yrotation Xrotation
				JOINT joint_4
				{
					OFFSET 0.150391 -4.451904 123.526001
					CHANNELS 3 Zrotation Yrotation Xrotation
					JOINT joint_5
					{
						OFFSET 19.754150 -8.123901 80.916992
						CHANNELS 3 Zrotation Yrotation Xrotation
						End Site
						{
							OFFSET 0.000000 0.000000 0.000000
						}
					}
				}
				JOINT joint_6
				{
					OFFSET -6.477539 -28.517334 68.237061
					CHANNELS 3 Zrotation Yrotation Xrotation
					JOINT joint_7
					{
						OFFSET -20.564453 -115.426208 -21.139038
						CHANNELS 3 Zrotation Yrotation Xrotation
						JOINT joint_8
						{
							OFFSET 18.981934 -19.826172 -267.898926
							CHANNELS 3 Zrotation Yrotation Xrotation
							JOINT joint_9
							{
								OFFSET 11.562744 -19.325867 -235.478027
								CHANNELS 3 Zrotation Yrotation Xrotation
								End Site
								{
									OFFSET 0.000000 0.000000 0.000000
								}
							}
						}
					}
				}
				JOINT joint_10
				{
					OFFSET 7.033936 23.504700 70.088989
					CHANNELS 3 Zrotation Yrotation Xrotation
					JOINT joint_11
					{
						OFFSET 36.629639 112.486816 -14.036987
						CHANNELS 3 Zrotation Yrotation Xrotation
						JOINT joint_12
						{
							OFFSET 41.355225 -7.048523 -266.019897
							CHANNELS 3 Zrotation Yrotation Xrotation
							JOINT joint_13
							{
								OFFSET 5.858887 29.785156 -234.603027
								CHANNELS 3 Zrotation Yrotation Xrotation
								End Site
								{
									OFFSET 0.000000 0.000000 0.000000
								}
							}
						}
					}
				}
			}
		}
	}
	JOINT joint_14
	{
		OFFSET -8.917725 -79.985535 -99.035034
		CHANNELS 3 Zrotation Yrotation Xrotation
		JOINT joint_15
		{
			OFFSET -32.739502 -31.478882 -502.570984
			CHANNELS 3 Zrotation Yrotation Xrotation
			JOINT joint_16
			{
				OFFSET 7.393066 -29.352966 -399.008011
				CHANNELS 3 Zrotation Yrotation Xrotation
				JOINT joint_17
				{
					OFFSET 178.013916 -26.060303 -71.875002
					CHANNELS 3 Zrotation Yrotation Xrotation
					End Site
					{
						OFFSET 0.000000 0.000000 0.000000
					}
				}
			}
		}
	}
	JOINT joint_18
	{
		OFFSET 1.900879 81.159851 -98.481018
		CHANNELS 3 Zrotation Yrotation Xrotation
		JOINT joint_19
		{
			OFFSET -15.120850 31.602051 -503.400024
			CHANNELS 3 Zrotation Yrotation Xrotation
			JOINT joint_20
			{
				OFFSET -16.653076 23.887695 -399.091988
				CHANNELS 3 Zrotation Yrotation Xrotation
				JOINT joint_21
				{
					OFFSET 179.618164 -1.217651 -72.592001
					CHANNELS 3 Zrotation Yrotation Xrotation
					End Site
					{
						OFFSET 0.000000 0.000000 0.000000
					}
				}
			}
		}
	}
}
MOTION
Frames: 6
Frame Time: 0.016667
-2839.950439 648.265015 1094.620972 3.182577 -1.791555 0.644206 3.861894 4.094637 -2.347698 3.968602 -0.937739 0.634210 3.899772 0.846112 -0.525051 0.089622 -0.672784 -0.645037 0.000000 0.000000 0.000000 0.487675 -0.409532 0.517629 0.178523 -0.608772 1.947762 -0.042295 0.022010 -0.805491 0.000000 0.000000 0.000000 -0.260564 2.464224 -1.005148 -0.196578 0.269568 5.853060 -2.359851 -8.805051 -10.901604 0.000000 0.000000 0.000000 0.105686 3.341149 -2.935996 -0.220842 3.828756 1.715718 0.309553 -3.626587 -0.406298 0.000000 0.000000 0.000000 0.495770 3.120912 -0.853386 0.456330 2.504937 -0.709984 0.067892 -3.617835 0.002849 0.000000 0.000000 0.000000 
-2840.206787 648.406250 1094.612061 3.182042 -1.825701 0.646732 3.863487 4.107621 -2.335097 3.968949 -0.941021 0.630207 3.900801 0.851160 -0.521023 0.090002 -0.658549 -0.640611 0.000000 0.000000 0.000000 0.471311 -0.395030 0.529463 0.176473 -0.592103 1.932402 -0.041007 0.016799 -0.791202 0.000000 0.000000 0.000000 -0.267869 2.482925 -1.016432 -0.195332 0.281335 5.866316 -2.359367 -8.804587 -10.901866 0.000000 0.000000 0.000000 0.107724 3.351944 -2.954648 -0.221775 3.854604 1.728227 0.310753 -3.628894 -0.406162 0.000000 0.000000 0.000000 0.496153 3.132635 -0.861099 0.457217 2.525683 -0.717663 0.067920 -3.608635 0.002922 0.000000 0.000000 0.000000 
-2840.469482 648.554199 1094.600952 3.178205 -1.866042 0.648819 3.865347 4.124506 -2.319111 3.969394 -0.944386 0.627527 3.901762 0.856092 -0.517899 0.091419 -0.644228 -0.640519 0.000000 0.000000 0.000000 0.457429 -0.380749 0.541170 0.174111 -0.574411 1.912809 -0.039713 0.011470 -0.776971 0.000000 0.000000 0.000000 -0.275646 2.502648 -1.027483 -0.194431 0.295408 5.875954 -2.358509 -8.804406 -10.901018 0.000000 0.000000 0.000000 0.110800 3.368117 -2.973827 -0.221506 3.882063 1.741265 0.313366 -3.632299 -0.405619 0.000000 0.000000 0.000000 0.498091 3.151275 -0.869266 0.459177 2.546207 -0.724290 0.069029 -3.599963 0.003427 0.000000 0.000000 0.000000 
-2840.741211 648.701965 1094.589966 3.175115 -1.904885 0.650854 3.866693 4.138285 -2.301928 3.969211 -0.948526 0.624159 3.902106 0.860706 -0.515346 0.093026 -0.628620 -0.640686 0.000000 0.000000 0.000000 0.442930 -0.366263 0.553115 0.171764 -0.556735 1.894036 -0.038703 0.008143 -0.764268 0.000000 0.000000 0.000000 -0.282613 2.523137 -1.039165 -0.193552 0.309971 5.885461 -2.357806 -8.804520 -10.901236 0.000000 0.000000 0.000000 0.113723 3.381986 -2.993476 -0.221650 3.909711 1.755373 0.315466 -3.634349 -0.405084 0.000000 0.000000 0.000000 0.499855 3.166577 -0.877090 0.461326 2.568846 -0.731680 0.070216 -3.590779 0.003966 0.000000 0.000000 0.000000 
-2841.020508 648.840454 1094.579956 3.175352 -1.935554 0.654273 3.865525 4.139194 -2.290194 3.966940 -0.950054 0.622140 3.900185 0.863227 -0.513183 0.094154 -0.608122 -0.636807 0.000000 0.000000 0.000000 0.430416 -0.351203 0.564655 0.169690 -0.539195 1.880783 -0.038168 0.008503 -0.753525 0.000000 0.000000 0.000000 -0.284189 2.544954 -1.050084 -0.193273 0.325173 5.895609 -2.357926 -8.807304 -10.903281 0.000000 0.000000 0.000000 0.115381 3.386652 -3.014032 -0.223742 3.937401 1.769968 0.315510 -3.635121 -0.405189 0.000000 0.000000 0.000000 0.500619 3.170031 -0.884603 0.463532 2.595310 -0.742293 0.071188 -3.580625 0.004427 0.000000 0.000000 0.000000 
-2841.309814 648.974609 1094.572021 3.177419 -1.960755 0.658158 3.863414 4.131888 -2.279867 3.963812 -0.951678 0.619884 3.897424 0.865422 -0.511046 0.095394 -0.584323 -0.632023 0.000000 0.000000 0.000000 0.416348 -0.335765 0.575921 0.167777 -0.522164 1.870452 -0.038013 0.011671 -0.744627 0.000000 0.000000 0.000000 -0.285204 2.567885 -1.061665 -0.193138 0.340880 5.906680 -2.358513 -8.811577 -10.907080 0.000000 0.000000 0.000000 0.116473 3.384549 -3.035064 -0.226933 3.965594 1.785147 0.314360 -3.634211 -0.405527 0.000000 0.000000 0.000000 0.500878 3.164919 -0.891503 0.466040 2.625089 -0.755163 0.072266 -3.569296 0.004939 0.000000 0.000000 0.000000 
